<?xml version="1.0" encoding="utf-8" ?>
<svg xmlns="http://www.w3.org/2000/svg" xmlns:ev="http://www.w3.org/2001/xml-events" xmlns:xlink="http://www.w3.org/1999/xlink" baseProfile="full" height="128" version="1.1" viewBox="0 0 128 128" width="128">
  <defs/>
  <path d="M 51.24592208862305,26.89591407775879 C 51.25949478149414,26.88489532470703 51.263118743896484,26.881343841552734 51.272029876708984,26.871200561523438" fill="none" stroke="#009000" stroke-width="5.0"/>
  <path d="M 46.921966552734375,30.01881980895996 C 46.93318176269531,30.015722274780273 46.937442779541016,30.014509201049805 46.944705963134766,30.011383056640625" fill="none" stroke="#000000" stroke-width="5.0"/>
  <path d="M 43.61274719238281,32.20869445800781 C 43.618743896484375,32.200950622558594 43.62310791015625,32.197731018066406 43.62810516357422,32.19525146484375" fill="none" stroke="#000000" stroke-width="5.0"/>
  <path d="M 44.57910919189453,34.015743255615234 C 44.59222412109375,34.01871109008789 44.59699630737305,34.018165588378906 44.60824966430664,34.01670837402344" fill="none" stroke="#000000" stroke-width="5.0"/>
  <path d="M 50.02450180053711,35.86023712158203 C 50.04343795776367,35.86371994018555 50.04582977294922,35.86475372314453 50.05903625488281,35.869014739990234" fill="none" stroke="#000000" stroke-width="5.0"/>
  <path d="M 55.532142639160156,39.44950866699219 C 55.544288635253906,39.458412170410156 55.54585266113281,39.4598388671875 55.55207061767578,39.466590881347656" fill="none" stroke="#000000" stroke-width="5.0"/>
  <path d="M 59.26647186279297,45.330020904541016 C 59.26372146606445,45.31549072265625 59.260597229003906,45.30841827392578 59.25422668457031,45.297122955322266" fill="none" stroke="#000000" stroke-width="5.0"/>
  <path d="M 59.878692626953125,52.13982391357422 C 59.886783599853516,52.123714447021484 59.88727569580078,52.11587905883789 59.888484954833984,52.10788345336914" fill="none" stroke="#000000" stroke-width="5.0"/>
  <path d="M 57.14768600463867,58.18922805786133 C 57.160037994384766,58.17470932006836 57.16240310668945,58.16857147216797 57.16749954223633,58.15977096557617" fill="none" stroke="#000000" stroke-width="5.0"/>
  <path d="M 52.085548400878906,63.22542953491211 C 52.097076416015625,63.21939468383789 52.10207748413086,63.217288970947266 52.114402770996094,63.20677947998047" fill="none" stroke="#000000" stroke-width="5.0"/>
  <path d="M 45.70957946777344,67.00599670410156 C 45.72248458862305,67.00074005126953 45.72694396972656,66.99845886230469 45.74196243286133,66.99008178710938" fill="none" stroke="#000000" stroke-width="5.0"/>
  <path d="M 39.0328254699707,69.27458190917969 C 39.045166015625,69.27468872070312 39.05124282836914,69.27445220947266 39.068546295166016,69.27030944824219" fill="none" stroke="#000000" stroke-width="5.0"/>
  <path d="M 33.064823150634766,70.00016784667969 C 33.077884674072266,69.99998474121094 33.08249282836914,69.99970245361328 33.09140396118164,69.9998550415039" fill="none" stroke="#000000" stroke-width="5.0"/>
  <path d="M 27.877321243286133,70.00016784667969 C 27.890382766723633,69.99998474121094 27.894990921020508,69.99970245361328 27.90390396118164,69.9998550415039" fill="none" stroke="#000000" stroke-width="5.0"/>
  <path d="M 24.625333786010742,70.00115966796875 C 24.626832962036133,70.00013732910156 24.626941680908203,69.99694061279297 24.625661849975586,69.99781799316406" fill="none" stroke="#000000" stroke-width="5.0"/>
  <path d="M 21.054292678833008,69.99988555908203 C 21.07060432434082,70.00027465820312 21.074338912963867,70.00003814697266 21.086299896240234,69.99996948242188" fill="none" stroke="#000000" stroke-width="5.0"/>
  <path d="M 15.288667678833008,69.99988555908203 C 15.304978370666504,70.00027465820312 15.30871295928955,70.00003814697266 15.320672988891602,69.99996948242188" fill="none" stroke="#000000" stroke-width="5.0"/>
  <path d="M 12.089943885803223,69.38451385498047 C 12.094779968261719,69.39157104492188 12.095955848693848,69.39190673828125 12.097881317138672,69.39606475830078" fill="none" stroke="#000000" stroke-width="5.0"/>
  <path d="M 12.620590209960938,67.3984603881836 C 12.626823425292969,67.38951873779297 12.629258155822754,67.38443756103516 12.629948616027832,67.38325500488281" fill="none" stroke="#000000" stroke-width="5.0"/>
  <path d="M 15.461695671081543,66.0899887084961 C 15.472290992736816,66.0908203125 15.475560188293457,66.08997344970703 15.478673934936523,66.09026336669922" fill="none" stroke="#000000" stroke-width="5.0"/>
  <path d="M 19.305444717407227,66.0899887084961 C 19.3160400390625,66.0908203125 19.31930923461914,66.08997344970703 19.32242202758789,66.09026336669922" fill="none" stroke="#000000" stroke-width="5.0"/>
  <path d="M 21.407176971435547,63.98202896118164 C 21.40924835205078,63.969112396240234 21.4084529876709,63.96152114868164 21.406402587890625,63.95542907714844" fill="none" stroke="#000000" stroke-width="5.0"/>
  <path d="M 21.814125061035156,59.29585266113281 C 21.8154354095459,59.281192779541016 21.815902709960938,59.27378463745117 21.815771102905273,59.264862060546875" fill="none" stroke="#000000" stroke-width="5.0"/>
  <path d="M 22.061779022216797,53.96939468383789 C 22.063724517822266,53.95984649658203 22.065017700195312,53.95582962036133 22.066604614257812,53.947166442871094" fill="none" stroke="#000000" stroke-width="5.0"/>
  <path d="M 22.184280395507812,48.642208099365234 C 22.18622589111328,48.632659912109375 22.187519073486328,48.62864303588867 22.189105987548828,48.61997985839844" fill="none" stroke="#000000" stroke-width="5.0"/>
  <path d="M 22.234222412109375,43.1013298034668 C 22.233966827392578,43.086700439453125 22.234188079833984,43.08143615722656 22.234458923339844,43.07039260864258" fill="none" stroke="#000000" stroke-width="5.0"/>
  <path d="M 22.234222412109375,37.3357048034668 C 22.233966827392578,37.321075439453125 22.234188079833984,37.31581115722656 22.234458923339844,37.30476760864258" fill="none" stroke="#000000" stroke-width="5.0"/>
  <path d="M 22.234222412109375,31.57008171081543 C 22.233966827392578,31.555450439453125 22.234188079833984,31.550186157226562 22.234458923339844,31.53914451599121" fill="none" stroke="#000000" stroke-width="5.0"/>
  <path d="M 22.234222412109375,25.80445671081543 C 22.233966827392578,25.789825439453125 22.234188079833984,25.784561157226562 22.234458923339844,25.77351951599121" fill="none" stroke="#000000" stroke-width="5.0"/>
  <path d="M 22.212268829345703,20.099960327148438 C 22.21156883239746,20.086875915527344 22.211721420288086,20.081449508666992 22.2115421295166,20.071619033813477" fill="none" stroke="#000000" stroke-width="5.0"/>
  <path d="M 22.121694564819336,14.466659545898438 C 22.12163734436035,14.452272415161133 22.121654510498047,14.445858001708984 22.121305465698242,14.434267044067383" fill="none" stroke="#000000" stroke-width="5.0"/>
  <path d="M 21.941129684448242,8.833961486816406 C 21.941072463989258,8.819574356079102 21.941089630126953,8.813159942626953 21.94074058532715,8.801568984985352" fill="none" stroke="#000000" stroke-width="5.0"/>
  <path d="M 19.847280502319336,5.9991960525512695 C 19.860708236694336,6.000131607055664 19.864410400390625,5.999619007110596 19.871492385864258,6.000704765319824" fill="none" stroke="#000000" stroke-width="5.0"/>
  <path d="M 15.909780502319336,5.9991960525512695 C 15.923209190368652,6.000131607055664 15.926909446716309,5.999619007110596 15.933992385864258,6.000704765319824" fill="none" stroke="#000000" stroke-width="5.0"/>
  <path d="M 13.714943885803223,5.087639808654785 C 13.719779968261719,5.094692707061768 13.720955848693848,5.095030784606934 13.722881317138672,5.099190711975098" fill="none" stroke="#000000" stroke-width="5.0"/>
  <path d="M 14.589340209960938,3.101588010787964 C 14.595573425292969,3.0926401615142822 14.598008155822754,3.0875613689422607 14.598698616027832,3.086380958557129" fill="none" stroke="#000000" stroke-width="5.0"/>
  <path d="M 33.54720687866211,36.856807708740234 C 33.547176361083984,36.85967254638672 33.547428131103516,36.8586540222168 33.54677963256836,36.861114501953125" fill="none" stroke="#000000" stroke-width="5.0"/>
  <path d="M 36.506771087646484,38.288394927978516 C 36.52394485473633,38.29219055175781 36.52641296386719,38.29258346557617 36.53493881225586,38.2950553894043" fill="none" stroke="#000000" stroke-width="5.0"/>
  <path d="M 41.739925384521484,39.86228561401367 C 41.757686614990234,39.86920166015625 41.75990295410156,39.870872497558594 41.77090072631836,39.87702941894531" fill="none" stroke="#000000" stroke-width="5.0"/>
  <path d="M 46.687564849853516,43.24410629272461 C 46.682552337646484,43.23405456542969 46.678565979003906,43.2283935546875 46.66862106323242,43.220943450927734" fill="none" stroke="#000000" stroke-width="5.0"/>
  <path d="M 50.1552734375,48.58040237426758 C 50.152523040771484,48.56587219238281 50.14939880371094,48.558799743652344 50.143028259277344,48.54750442504883" fill="none" stroke="#000000" stroke-width="5.0"/>
  <path d="M 50.987548828125,54.649166107177734 C 50.990875244140625,54.63252258300781 50.990806579589844,54.623680114746094 50.98979949951172,54.614601135253906" fill="none" stroke="#000000" stroke-width="5.0"/>
  <path d="M 49.08369064331055,60.211936950683594 C 49.09586715698242,60.198204040527344 49.097679138183594,60.192047119140625 49.10158157348633,60.183815002441406" fill="none" stroke="#000000" stroke-width="5.0"/>
  <path d="M 44.34067916870117,64.0307846069336 C 44.352115631103516,64.02610778808594 44.35731506347656,64.02444458007812 44.37212371826172,64.01416015625" fill="none" stroke="#000000" stroke-width="5.0"/>
  <path d="M 39.314964294433594,65.43218994140625 C 39.325557708740234,65.43302154541016 39.328826904296875,65.43217468261719 39.331939697265625,65.43246459960938" fill="none" stroke="#000000" stroke-width="5.0"/>
  <path d="M 35.455589294433594,65.36968994140625 C 35.466182708740234,65.37052154541016 35.469451904296875,65.36967468261719 35.472564697265625,65.36996459960938" fill="none" stroke="#000000" stroke-width="5.0"/>
  <path d="M 31.818042755126953,64.85672760009766 C 31.831314086914062,64.8624038696289 31.834131240844727,64.86203002929688 31.838102340698242,64.86286163330078" fill="none" stroke="#000000" stroke-width="5.0"/>
  <path d="M 30.02984619140625,62.27854919433594 C 30.028371810913086,62.26633834838867 30.029529571533203,62.26110076904297 30.03095245361328,62.25221252441406" fill="none" stroke="#000000" stroke-width="5.0"/>
  <path d="M 29.920949935913086,57.285308837890625 C 29.920249938964844,57.27222442626953 29.92040252685547,57.26679992675781 29.920223236083984,57.2569694519043" fill="none" stroke="#000000" stroke-width="5.0"/>
  <path d="M 29.907379150390625,51.76466369628906 C 29.910444259643555,51.75144958496094 29.911083221435547,51.746437072753906 29.912931442260742,51.7347297668457" fill="none" stroke="#000000" stroke-width="5.0"/>
  <path d="M 29.972219467163086,46.242488861083984 C 29.97469139099121,46.23060607910156 29.975000381469727,46.22530746459961 29.975830078125,46.21467590332031" fill="none" stroke="#000000" stroke-width="5.0"/>
  <path d="M 30.062454223632812,39.99298095703125 C 30.062496185302734,39.97516632080078 30.062559127807617,39.96887969970703 30.062583923339844,39.95236587524414" fill="none" stroke="#000000" stroke-width="5.0"/>
  <path d="M 30.162639617919922,32.99964141845703 C 30.162681579589844,32.98182678222656 30.162744522094727,32.97554016113281 30.162769317626953,32.95902633666992" fill="none" stroke="#000000" stroke-width="5.0"/>
  <path d="M 30.293304443359375,26.00569725036621 C 30.293346405029297,25.987884521484375 30.29340934753418,25.98159408569336 30.293434143066406,25.9650821685791" fill="none" stroke="#000000" stroke-width="5.0"/>
  <path d="M 30.48914337158203,19.01418113708496 C 30.489837646484375,18.995960235595703 30.490331649780273,18.988618850708008 30.491004943847656,18.974477767944336" fill="none" stroke="#000000" stroke-width="5.0"/>
  <path d="M 30.781021118164062,12.673481941223145 C 30.781274795532227,12.657710075378418 30.78125,12.65146541595459 30.781423568725586,12.638919830322266" fill="none" stroke="#000000" stroke-width="5.0"/>
  <path d="M 31.09395408630371,7.917546272277832 C 31.093862533569336,7.906679153442383 31.094318389892578,7.900799751281738 31.09359359741211,7.894855499267578" fill="none" stroke="#000000" stroke-width="5.0"/>
  <path d="M 33.3484992980957,6.029129505157471 C 33.35883331298828,6.029791831970215 33.36344528198242,6.028979301452637 33.37102508544922,6.031419277191162" fill="none" stroke="#000000" stroke-width="5.0"/>
  <path d="M 38.88652420043945,6.303389072418213 C 38.90189743041992,6.303297996520996 38.90643310546875,6.303335189819336 38.91989517211914,6.304720401763916" fill="none" stroke="#000000" stroke-width="5.0"/>
  <path d="M 45.18154525756836,7.802652835845947 C 45.197811126708984,7.806941986083984 45.20018005371094,7.807756423950195 45.20930862426758,7.813501358032227" fill="none" stroke="#000000" stroke-width="5.0"/>
  <path d="M 49.17285919189453,12.285297393798828 C 49.17373275756836,12.271159172058105 49.17018508911133,12.262789726257324 49.163997650146484,12.255263328552246" fill="none" stroke="#000000" stroke-width="5.0"/>
  <path d="M 49.652565002441406,18.298662185668945 C 49.65865707397461,18.28086280822754 49.65961837768555,18.27180290222168 49.660762786865234,18.263530731201172" fill="none" stroke="#000000" stroke-width="5.0"/>
  <path d="M 47.11296463012695,24.080842971801758 C 47.12531661987305,24.066320419311523 47.127681732177734,24.0601863861084 47.13277816772461,24.05138397216797" fill="none" stroke="#000000" stroke-width="5.0"/>
  <path d="M 42.453697204589844,29.350818634033203 C 42.46637725830078,29.34170913696289 42.47099685668945,29.339218139648438 42.47998046875,29.328683853149414" fill="none" stroke="#000000" stroke-width="5.0"/>
</svg>
