<svg xmlns="http://www.w3.org/2000/svg" viewBox="0.0 0.0 72.0 72.0" height="200px" width="200px"><path fill="none" stroke="black" stroke-width="2" stroke-opacity="1.0"  filling="0" d="M37.771873474121094 56.92499923706055 L36.0 57.00595474243164 L35.662498474121094 57.00823211669922 L34.98749923706055 56.995506286621094 L34.650001525878906 56.984764099121094 L34.3125 56.97167205810547 L33.974998474121094 56.948402404785156 L33.63750076293945 56.92107391357422 L33.29999923706055 56.89707946777344 L32.962501525878906 56.868751525878906 L32.625 56.84672164916992 L32.287498474121094 56.83061218261719 L31.950000762939453 56.8043212890625 L31.612499237060547 56.76946258544922 L30.9375 56.68408203125 L30.600000381469727 56.63056182861328 L30.262500762939453 56.55957794189453 L29.587499618530273 56.466529846191406 L29.25 56.404075622558594 L28.912500381469727 56.33382797241211 L28.54943084716797 56.25 L28.237499237060547 56.184852600097656 L27.900001525878906 56.10729217529297 L27.5625 56.02465057373047 L27.225000381469727 55.94696044921875 L27.118614196777344 55.912498474121094 L26.549999237060547 55.74168014526367 L26.212501525878906 55.65327453613281 L25.952625274658203 55.57499694824219 L25.875 55.54707717895508 L25.537500381469727 55.41562271118164 L25.200000762939453 55.320377349853516 L24.966564178466797 55.23749923706055 L24.862499237060547 55.192901611328125 L24.525001525878906 55.040626525878906 L24.1875 54.94870376586914 L24.104095458984375 54.900001525878906 L23.850000381469727 54.7635383605957 L23.512500762939453 54.65126037597656 L23.33599090576172 54.5625 L23.174999237060547 54.46974182128906 L22.837501525878906 54.33238220214844 L22.632591247558594 54.224998474121094 L22.5 54.13837432861328 L22.162500381469727 53.99610900878906 L21.987979888916016 53.88749694824219 L21.825000762939453 53.77193069458008 L21.487499237060547 53.63136291503906 L21.38625144958496 53.54999923706055 L21.150001525878906 53.39052963256836 L20.83489990234375 53.212501525878906 L20.8125 53.193023681640625 L20.475000381469727 52.99626159667969 L20.137500762939453 52.73365783691406 L19.844745635986328 52.537498474121094 L19.80000114440918 52.49620056152344 L19.462499618530273 52.297096252441406 L19.355865478515625 52.19999694824219 L19.125 52.012779235839844 L18.949384689331055 51.86249923706055 L18.787500381469727 51.71971130371094 L18.550195693969727 51.525001525878906 L18.450000762939453 51.430137634277344 L18.163244247436523 51.1875 L18.11250114440918 51.13813781738281 L17.781591415405273 50.849998474121094 L17.433351516723633 50.51250076293945 L17.100000381469727 50.17078399658203 L16.808074951171875 49.837501525878906 L16.762500762939453 49.788719177246094 L16.51775550842285 49.5 L16.42500114440918 49.39850616455078 L16.23341941833496 49.162498474121094 L15.940210342407227 48.82500076293945 L15.75 48.571876525878906 L15.674871444702148 48.48749923706055 L15.47353744506836 48.150001525878906 L15.412500381469727 48.07768249511719 L15.231142044067383 47.8125 L15.075000762939453 47.580291748046875 L14.990625381469727 47.474998474121094 L14.820793151855469 47.13750076293945 L14.73750114440918 47.02250671386719 L14.590459823608398 46.79999923706055 L14.43867301940918 46.462501525878906 L14.400001525878906 46.412330627441406 L14.226663589477539 46.125 L14.099081039428711 45.787498474121094 L14.0625 45.738609313964844 L13.89466667175293 45.45000076293945 L13.791862487792969 45.11249923706055 L13.725000381469727 44.9994010925293 L13.599441528320312 44.775001525878906 L13.503789901733398 44.4375 L13.387500762939453 44.15340042114258 L13.355781555175781 44.099998474121094 L13.221332550048828 43.76250076293945 L13.156148910522461 43.42499923706055 L13.05000114440918 43.15818786621094 L13.01153564453125 43.087501525878906 L12.899517059326172 42.75 L12.847021102905273 42.412498474121094 L12.774557113647461 42.07500076293945 L12.712501525878906 41.90625 L12.647510528564453 41.73749923706055 L12.565797805786133 41.400001525878906 L12.52888298034668 41.0625 L12.49626350402832 40.724998474121094 L12.434879302978516 40.38750076293945 L12.375 40.114524841308594 L12.358123779296875 40.04999923706055 L12.292196273803711 39.712501525878906 L12.250234603881836 39.375 L12.232149124145508 39.037498474121094 L12.197778701782227 38.70000076293945 L12.350147247314453 38.36249923706055 L12.375 38.33783721923828 L12.712501525878906 38.3380241394043 L13.05000114440918 38.33565139770508 L19.60714340209961 38.33565139770508 L26.164287567138672 38.33565139770508 L32.72142791748047 38.335655212402344 L39.27857208251953 38.335655212402344 L45.835716247558594 38.33565139770508 L52.392852783203125 38.33565139770508 L58.94999694824219 38.33565139770508 L59.22259521484375 38.36249923706055 L59.287498474121094 38.37017059326172 L59.4501953125 38.70000076293945 L59.418846130371094 39.037498474121094 L59.40093231201172 39.375 L59.341827392578125 39.712501525878906 L59.25303649902344 40.04999923706055 L59.189849853515625 40.38750076293945 L59.14649200439453 40.724998474121094 L59.12480545043945 41.0625 L59.08766555786133 41.400001525878906 L58.9921875 41.73749923706055 L58.94999694824219 41.82435607910156 L58.854248046875 42.07500076293945 L58.800601959228516 42.412498474121094 L58.73858642578125 42.75 L58.616546630859375 43.087501525878906 L58.61249923706055 43.09516906738281 L58.499122619628906 43.42499923706055 L58.425506591796875 43.76250076293945 L58.275001525878906 44.071876525878906 L58.256248474121094 44.099998474121094 L58.141136169433594 44.4375 L58.032833099365234 44.775001525878906 L57.9375 44.951881408691406 L57.857669830322266 45.11249923706055 L57.75642395019531 45.45000076293945 L57.599998474121094 45.6986083984375 L57.53617858886719 45.787498474121094 L57.40528869628906 46.125 L57.26249694824219 46.35265350341797 L57.188804626464844 46.462501525878906 L57.054412841796875 46.79999923706055 L56.92499923706055 46.997135162353516 L56.8299446105957 47.13750076293945 L56.64085388183594 47.474998474121094 L56.587501525878906 47.53809356689453 L56.40718078613281 47.8125 L56.25 48.034324645996094 L56.15563201904297 48.150001525878906 L55.96674346923828 48.48749923706055 L55.912498474121094 48.550254821777344 L55.71343994140625 48.82500076293945 L55.57499694824219 48.97319793701172 L55.40528106689453 49.162498474121094 L55.23749923706055 49.358428955078125 L55.10808563232422 49.5 L54.900001525878906 49.75312423706055 L54.8236083984375 49.837501525878906 L54.5625 50.15167236328125 L54.540931701660156 50.17499923706055 L54.18927764892578 50.51250076293945 L53.88749694824219 50.78630065917969 L53.822509765625 50.849998474121094 L53.54999923706055 51.10206604003906 L53.46293640136719 51.1875 L53.212501525878906 51.41878128051758 L53.10172653198242 51.525001525878906 L52.875 51.709781646728516 L52.537498474121094 51.99393844604492 L52.26042938232422 52.19999694824219 L52.19999694824219 52.25807571411133 L51.86249923706055 52.46763610839844 L51.78684997558594 52.537498474121094 L51.525001525878906 52.72829818725586 L51.33293914794922 52.875 L51.1875 52.989540100097656 L50.849998474121094 53.15355682373047 L50.77887725830078 53.212501525878906 L50.51250076293945 53.368961334228516 L50.23828125 53.54999923706055 L50.17499923706055 53.60624694824219 L49.837501525878906 53.76019287109375 L49.6605224609375 53.88749694824219 L49.5 53.993648529052734 L49.162498474121094 54.1142578125 L48.985313415527344 54.224998474121094 L48.82500076293945 54.31660461425781 L48.48749923706055 54.43516159057617 L48.150001525878906 54.63920593261719 L47.8125 54.755794525146484 L47.5451545715332 54.900001525878906 L47.474998474121094 54.94276428222656 L47.13750076293945 55.027984619140625 L46.79999923706055 55.160057067871094 L46.62334060668945 55.23749923706055 L46.462501525878906 55.302650451660156 L46.125 55.400108337402344 L45.787498474121094 55.54053497314453 L45.6915397644043 55.57499694824219 L45.45000076293945 55.650115966796875 L45.11249923706055 55.72925567626953 L44.775001525878906 55.822715759277344 L44.4375 55.91899108886719 L43.42499923706055 56.183135986328125 L42.75 56.319034576416016 L42.412498474121094 56.383949279785156 L41.73749923706055 56.50312423706055 L41.400001525878906 56.5509147644043 L41.0625 56.62617111206055 L40.724998474121094 56.679649353027344 L40.04999923706055 56.75316619873047 L39.712501525878906 56.78620910644531 L39.375 56.816654205322266 L38.70000076293945 56.866920471191406 L38.36249923706055 56.894866943359375 L38.025001525878906 56.91349411010742 L37.771873474121094 56.92499923706055"></path>
<path fill="none" stroke="black" stroke-width="2" stroke-opacity="1.0"  filling="0" d="M39.712501525878906 59.29927062988281 L39.375 59.34752655029297 L39.037498474121094 59.388553619384766 L38.70000076293945 59.41777801513672 L38.36249923706055 59.43413162231445 L37.6875 59.45771026611328 L37.349998474121094 59.466796875 L36.67499923706055 59.46983337402344 L36.0 59.4779052734375 L35.662498474121094 59.4779052734375 L34.98749923706055 59.46983337402344 L34.3125 59.466796875 L33.974998474121094 59.45771026611328 L33.29999923706055 59.43413162231445 L32.962501525878906 59.41777801513672 L32.625 59.388553619384766 L32.287498474121094 59.34752655029297 L31.950000762939453 59.296730041503906 L31.900781631469727 59.287498474121094 L31.612499237060547 59.24074935913086 L31.274999618530273 59.19174575805664 L30.9375 59.15202331542969 L30.600000381469727 59.13548278808594 L30.262500762939453 59.10557556152344 L29.924999237060547 59.056217193603516 L29.587499618530273 58.976646423339844 L29.50508689880371 58.94999694824219 L29.25 58.881446838378906 L28.912500381469727 58.82343673706055 L28.575000762939453 58.79296875 L28.237499237060547 58.733726501464844 L27.900001525878906 58.639347076416016 L27.834375381469727 58.61249923706055 L27.5625 58.526649475097656 L27.225000381469727 58.473297119140625 L26.887500762939453 58.409034729003906 L26.549999237060547 58.29706573486328 L26.50372886657715 58.275001525878906 L26.212501525878906 58.17524337768555 L25.875 58.117557525634766 L25.537500381469727 58.01081848144531 L25.378826141357422 57.9375 L25.200000762939453 57.86399459838867 L24.862499237060547 57.793487548828125 L24.525001525878906 57.661476135253906 L24.3984375 57.599998474121094 L24.1875 57.515625 L23.850000381469727 57.429298400878906 L23.52208709716797 57.26249694824219 L23.512500762939453 57.256011962890625 L23.174999237060547 57.14223098754883 L22.837501525878906 56.998321533203125 L22.691865921020508 56.92499923706055 L22.162500381469727 56.695281982421875 L21.825000762939453 56.525840759277344 L21.487499237060547 56.37068176269531 L21.150001525878906 56.18833923339844 L20.8125 56.016265869140625 L20.626876831054688 55.912498474121094 L20.475000381469727 55.82488250732422 L20.137500762939453 55.645225524902344 L19.80000114440918 55.430503845214844 L19.462499618530273 55.23881530761719 L18.951961517333984 54.900001525878906 L18.787500381469727 54.77717590332031 L18.450000762939453 54.563819885253906 L18.11250114440918 54.31938552856445 L17.774999618530273 54.05052947998047 L17.56437110900879 53.88749694824219 L17.4375 53.779544830322266 L17.1418514251709 53.54999923706055 L17.100000381469727 53.51153564453125 L16.762500762939453 53.23817443847656 L16.736820220947266 53.212501525878906 L16.42500114440918 52.931251525878906 L16.366453170776367 52.875 L16.087499618530273 52.617103576660156 L16.004234313964844 52.537498474121094 L15.668954849243164 52.19999694824219 L15.335390090942383 51.86249923706055 L15.075000762939453 51.57550048828125 L15.026954650878906 51.525001525878906 L14.73090934753418 51.1875 L14.450626373291016 50.849998474121094 L14.400001525878906 50.79375076293945 L14.176654815673828 50.51250076293945 L13.903736114501953 50.17499923706055 L13.725000381469727 49.93715286254883 L13.6448974609375 49.837501525878906 L13.428232192993164 49.5 L13.387500762939453 49.45421600341797 L13.187334060668945 49.162498474121094 L13.05000114440918 48.969825744628906 L12.939737319946289 48.82500076293945 L12.770574569702148 48.48749923706055 L12.712501525878906 48.417625427246094 L12.541219711303711 48.150001525878906 L12.375 47.8583869934082 L12.33816146850586 47.8125 L12.176025390625 47.474998474121094 L12.037500381469727 47.25225067138672 L11.953125 47.13750076293945 L11.836141586303711 46.79999923706055 L11.700000762939453 46.56900405883789 L11.621726989746094 46.462501525878906 L11.508382797241211 46.125 L11.36250114440918 45.812808990478516 L11.343610763549805 45.787498474121094 L11.20425033569336 45.45000076293945 L11.101705551147461 45.11249923706055 L11.025001525878906 44.98066329956055 L10.918851852416992 44.775001525878906 L10.846920013427734 44.4375 L10.731164932250977 44.099998474121094 L10.6875 44.01891326904297 L10.581352233886719 43.76250076293945 L10.523252487182617 43.42499923706055 L10.442708969116211 43.087501525878906 L10.350000381469727 42.84910583496094 L10.307235717773438 42.75 L10.22552490234375 42.412498474121094 L10.187589645385742 42.07500076293945 L10.123994827270508 41.73749923706055 L10.048482894897461 41.400001525878906 L10.012500762939453 41.2912483215332 L9.947349548339844 41.0625 L9.890155792236328 40.724998474121094 L9.847969055175781 40.04999923706055 L9.739452362060547 39.037498474121094 L9.724422454833984 38.70000076293945 L9.67500114440918 38.61351776123047 L9.403631210327148 38.36249923706055 L9.337501525878906 38.32598114013672 L9.0 38.34288024902344 L8.662500381469727 38.33565139770508 L6.975000381469727 38.33565139770508 L6.637500762939453 38.32745361328125 L6.30000114440918 38.358482360839844 L5.962501525878906 38.06484603881836 L5.940431594848633 38.025001525878906 L5.928752899169922 37.6875 L5.933319091796875 37.349998474121094 L5.933319091796875 36.67499923706055 L5.931018829345703 36.337501525878906 L5.9356536865234375 36.0 L5.962501525878906 35.97355270385742 L6.30000114440918 35.82853698730469 L6.637500762939453 35.83194351196289 L6.975000381469727 35.82853698730469 L13.640625 35.82853698730469 L20.306251525878906 35.82853698730469 L26.97187614440918 35.82853698730469 L33.63750076293945 35.82853698730469 L33.974998474121094 35.82502746582031 L34.3125 35.83124923706055 L34.53720474243164 35.662498474121094 L34.538978576660156 35.32500076293945 L34.538978576660156 33.29999923706055 L34.53660583496094 32.962501525878906 L34.54138946533203 32.625 L34.5063591003418 32.287498474121094 L34.3125 32.082664489746094 L33.974998474121094 32.09819793701172 L33.63750076293945 32.092384338378906 L29.25 32.092384338378906 L28.912500381469727 32.08991241455078 L28.575000762939453 32.09778594970703 L28.435855865478516 31.950000762939453 L28.378509521484375 31.612499237060547 L28.381366729736328 31.274999618530273 L28.379404067993164 30.600000381469727 L28.383594512939453 30.262500762939453 L28.377609252929688 29.924999237060547 L28.575000762939453 29.634246826171875 L28.912500381469727 29.640026092529297 L29.25 29.638126373291016 L33.63750076293945 29.638126373291016 L33.974998474121094 29.63226890563965 L34.3125 29.656055450439453 L34.402408599853516 29.587499618530273 L34.538978576660156 29.25 L34.538978576660156 23.681251525878906 L34.538978576660156 18.11250114440918 L34.54017639160156 17.774999618530273 L34.55156326293945 17.4375 L34.581443786621094 17.100000381469727 L34.650001525878906 16.81134796142578 L34.764095306396484 16.42500114440918 L34.829734802246094 16.087499618530273 L34.912384033203125 15.75 L34.98749923706055 15.642879486083984 L35.11930847167969 15.412500381469727 L35.231998443603516 15.075000762939453 L35.32500076293945 14.95890998840332 L35.47581481933594 14.73750114440918 L35.662498474121094 14.469141006469727 L35.725914001464844 14.400001525878906 L35.986045837402344 14.0625 L36.337501525878906 13.700338363647461 L36.67499923706055 13.42196273803711 L36.7094612121582 13.387500762939453 L37.01250076293945 13.165689468383789 L37.17632293701172 13.05000114440918 L37.349998474121094 12.917814254760742 L37.6875 12.792327880859375 L37.7985954284668 12.712501525878906 L38.025001525878906 12.57172966003418 L38.36249923706055 12.498414993286133 L38.68052673339844 12.375 L38.70000076293945 12.363227844238281 L39.037498474121094 12.257890701293945 L39.375 12.208490371704102 L39.712501525878906 12.192665100097656 L40.04999923706055 12.18289566040039 L40.38750076293945 12.182035446166992 L40.724998474121094 12.192665100097656 L41.0625 12.213092803955078 L41.400001525878906 12.262813568115234 L41.70894241333008 12.375 L41.73749923706055 12.388956069946289 L42.07500076293945 12.507589340209961 L42.412498474121094 12.592100143432617 L42.594120025634766 12.712501525878906 L42.75 12.813566207885742 L43.087501525878906 12.947507858276367 L43.21406173706055 13.05000114440918 L43.42499923706055 13.19062614440918 L43.67329025268555 13.387500762939453 L43.76250076293945 13.470376968383789 L44.05522918701172 13.725000381469727 L44.099998474121094 13.769769668579102 L44.4375 14.122528076171875 L44.775001525878906 14.539693832397461 L44.92661666870117 14.73750114440918 L45.11249923706055 15.047828674316406 L45.135902404785156 15.075000762939453 L45.28291320800781 15.412500381469727 L45.43794631958008 15.75 L45.45000076293945 15.769472122192383 L45.57341384887695 16.087499618530273 L45.624717712402344 16.42500114440918 L45.70145034790039 16.762500762939453 L45.764549255371094 17.100000381469727 L45.787498474121094 17.181964874267578 L45.845577239990234 17.4375 L45.787498474121094 17.53264617919922 L45.45000076293945 17.71875 L43.76250076293945 17.71875 L43.42499923706055 17.70104217529297 L43.256248474121094 17.4375 L43.24580383300781 17.100000381469727 L43.145259857177734 16.762500762939453 L43.087501525878906 16.671907424926758 L42.96782302856445 16.42500114440918 L42.82201385498047 16.087499618530273 L42.75 16.004365921020508 L42.551185607910156 15.75 L42.412498474121094 15.600116729736328 L42.07500076293945 15.290447235107422 L41.73749923706055 15.07368278503418 L41.400001525878906 14.891002655029297 L40.8254508972168 14.73750114440918 L40.724998474121094 14.706930160522461 L40.38750076293945 14.654264450073242 L40.04999923706055 14.651985168457031 L39.712501525878906 14.693218231201172 L39.55640411376953 14.73750114440918 L39.375 14.786201477050781 L39.037498474121094 14.868307113647461 L38.70000076293945 15.03632926940918 L38.64431381225586 15.075000762939453 L38.36249923706055 15.248958587646484 L38.175926208496094 15.412500381469727 L38.025001525878906 15.550765991210938 L37.84440994262695 15.75 L37.6875 15.928874969482422 L37.556766510009766 16.087499618530273 L37.418556213378906 16.42500114440918 L37.349998474121094 16.5380802154541 L37.227012634277344 16.762500762939453 L37.16360855102539 17.100000381469727 L37.13591384887695 17.4375 L37.11988830566406 17.774999618530273 L37.118648529052734 18.11250114440918 L37.118648529052734 23.681251525878906 L37.118648529052734 29.25 L37.2578239440918 29.587499618530273 L37.349998474121094 29.656055450439453 L37.6875 29.63226890563965 L38.025001525878906 29.638126373291016 L42.412498474121094 29.638126373291016 L42.75 29.640026092529297 L43.087501525878906 29.634246826171875 L43.281333923339844 29.924999237060547 L43.27542495727539 30.262500762939453 L43.27960205078125 30.600000381469727 L43.27762985229492 31.274999618530273 L43.28046417236328 31.612499237060547 L43.2242431640625 31.950000762939453 L43.087501525878906 32.09778594970703 L42.75 32.08991241455078 L42.412498474121094 32.092384338378906 L38.025001525878906 32.092384338378906 L37.6875 32.09819793701172 L37.349998474121094 32.082664489746094 L37.15261459350586 32.287498474121094 L37.11613464355469 32.625 L37.12104797363281 32.962501525878906 L37.118648529052734 33.29999923706055 L37.118648529052734 35.32500076293945 L37.12168884277344 35.662498474121094 L37.349998474121094 35.83124923706055 L37.6875 35.82502746582031 L38.025001525878906 35.82853698730469 L44.69062805175781 35.82853698730469 L51.35625076293945 35.82853698730469 L58.021873474121094 35.82853698730469 L64.6875 35.82853698730469 L65.0250015258789 35.83194351196289 L65.36250305175781 35.82853698730469 L65.69999694824219 35.98082733154297 L65.71947479248047 36.0 L65.72189331054688 36.337501525878906 L65.72189331054688 37.349998474121094 L65.72663879394531 37.6875 L65.7145004272461 38.025001525878906 L65.69999694824219 38.051143646240234 L65.36250305175781 38.36116027832031 L65.0250015258789 38.32745361328125 L64.6875 38.33565139770508 L63.0 38.33565139770508 L62.662498474121094 38.340431213378906 L62.32499694824219 38.32849884033203 L62.259910583496094 38.36249923706055 L61.98749923706055 38.59224319458008 L61.925392150878906 38.70000076293945 L61.911102294921875 39.037498474121094 L61.844058990478516 39.712501525878906 L61.807228088378906 40.04999923706055 L61.7891960144043 40.38750076293945 L61.7645378112793 40.724998474121094 L61.70252227783203 41.0625 L61.650001525878906 41.24275588989258 L61.600582122802734 41.400001525878906 L61.52861404418945 41.73749923706055 L61.469032287597656 42.07500076293945 L61.430450439453125 42.412498474121094 L61.33818054199219 42.75 L61.3125 42.80715560913086 L61.20903778076172 43.087501525878906 L61.13264465332031 43.42499923706055 L61.06938552856445 43.76250076293945 L60.974998474121094 43.98231887817383 L60.915374755859375 44.099998474121094 L60.81001281738281 44.4375 L60.73188781738281 44.775001525878906 L60.548736572265625 45.11249923706055 L60.45292663574219 45.45000076293945 L60.298683166503906 45.787498474121094 L60.14820098876953 46.125 L60.02936553955078 46.462501525878906 L59.962501525878906 46.55259323120117 L59.82146453857422 46.79999923706055 L59.695220947265625 47.13750076293945 L59.625 47.23093795776367 L59.47952651977539 47.474998474121094 L59.306251525878906 47.8125 L59.287498474121094 47.83551025390625 L59.114532470703125 48.150001525878906 L58.94999694824219 48.40312576293945 L58.881446838378906 48.48749923706055 L58.71076965332031 48.82500076293945 L58.61249923706055 48.95350646972656 L58.275001525878906 49.439456939697266 L58.222476959228516 49.5 L58.010440826416016 49.837501525878906 L57.9375 49.92652130126953 L57.749664306640625 50.17499923706055 L57.26249694824219 50.78175354003906 L57.20262145996094 50.849998474121094 L56.92499923706055 51.17848205566406 L56.62459945678711 51.525001525878906 L56.587501525878906 51.56404113769531 L56.31908416748047 51.86249923706055 L55.649871826171875 52.537498474121094 L55.57499694824219 52.60951232910156 L55.289512634277344 52.875 L55.23749923706055 52.925621032714844 L54.92109298706055 53.212501525878906 L54.900001525878906 53.23359298706055 L54.5625 53.50475311279297 L54.51294708251953 53.54999923706055 L54.224998474121094 53.773956298828125 L54.091712951660156 53.88749694824219 L53.88749694824219 54.04582214355469 L53.66130447387695 54.224998474121094 L53.54999923706055 54.31519317626953 L53.20414733886719 54.5625 L52.875 54.7702751159668 L52.70203399658203 54.900001525878906 L52.537498474121094 55.01029968261719 L52.190826416015625 55.23749923706055 L51.86249923706055 55.42511749267578 L51.525001525878906 55.64186477661133 L51.1875 55.820556640625 L51.02988052368164 55.912498474121094 L50.849998474121094 56.01416778564453 L50.51250076293945 56.18271255493164 L50.17499923706055 56.366416931152344 L49.837501525878906 56.5223503112793 L49.5 56.68940734863281 L49.162498474121094 56.83717346191406 L48.956764221191406 56.92499923706055 L48.82500076293945 56.991798400878906 L48.48749923706055 57.141563415527344 L48.150001525878906 57.25099563598633 L48.13274383544922 57.26249694824219 L47.8125 57.42729949951172 L47.474998474121094 57.5141487121582 L47.259098052978516 57.599998474121094 L47.13750076293945 57.65906524658203 L46.79999923706055 57.79095458984375 L46.462501525878906 57.86399459838867 L46.28096389770508 57.9375 L46.125 58.00898742675781 L45.787498474121094 58.114994049072266 L45.45000076293945 58.17264175415039 L45.14788055419922 58.275001525878906 L45.11249923706055 58.292137145996094 L44.775001525878906 58.409034729003906 L44.4375 58.473297119140625 L44.099998474121094 58.52373504638672 L43.820796966552734 58.61249923706055 L43.76250076293945 58.63697814941406 L43.42499923706055 58.7312126159668 L43.087501525878906 58.791404724121094 L42.75 58.82240676879883 L42.412498474121094 58.87977600097656 L42.155540466308594 58.94999694824219 L42.07500076293945 58.976646423339844 L41.73749923706055 59.056217193603516 L41.400001525878906 59.10468673706055 L41.0625 59.134681701660156 L40.724998474121094 59.15107727050781 L40.38750076293945 59.19174575805664 L40.04999923706055 59.24074935913086 L39.773250579833984 59.287498474121094 L39.712501525878906 59.29927062988281"></path></svg>