<?xml version="1.0" encoding="utf-8" ?>
<svg baseProfile="full" height="720" version="1.1" viewBox="0.0 0.0 72.0 72.0" width="720" xmlns="http://www.w3.org/2000/svg" xmlns:ev="http://www.w3.org/2001/xml-events" xmlns:xlink="http://www.w3.org/1999/xlink"><defs /><path d="M 15.703125,2.0 C 25.296875,2.0 34.890621185302734,2.0 44.484375,2.0" fill="none" stroke="#000000" stroke-width="0.7" /><path d="M 44.484375,2.0 C 49.85487747192383,2.0 53.97246551513672,0.5543036460876465 57.359375,6.34375" fill="none" stroke="#000000" stroke-width="0.7" /><path d="M 57.359375,6.34375 C 62.50479507446289,15.139121055603027 55.47555923461914,24.108173370361328 48.828125,29.09375" fill="none" stroke="#000000" stroke-width="0.7" /><path d="M 48.828125,29.09375 C 46.71099853515625,30.681594848632812 43.048583984375,30.961029052734375 42.203125,33.46875" fill="none" stroke="#000000" stroke-width="0.7" /><path d="M 42.203125,33.46875 C 41.680809020996094,35.01799011230469 45.42405700683594,34.07427215576172 46.984375,34.5625" fill="none" stroke="#000000" stroke-width="0.7" /><path d="M 46.984375,34.5625 C 51.21372985839844,35.88587951660156 55.393157958984375,37.790382385253906 57.984375,41.75" fill="none" stroke="#000000" stroke-width="0.7" /><path d="M 57.984375,41.75 C 67.61953735351562,56.47339630126953 48.02251434326172,68.88573455810547 35.765625,70.0" fill="none" stroke="#000000" stroke-width="0.7" /><path d="M 35.765625,70.0 L 35.671875,70.0" fill="none" stroke="#000000" stroke-width="0.7" /><path d="M 35.671875,70.0 C 32.21354293823242,70.0 28.755207061767578,70.0 25.296875,70.0" fill="none" stroke="#000000" stroke-width="0.7" /><path d="M 25.296875,70.0 L 23.953125,70.0" fill="none" stroke="#000000" stroke-width="0.7" /><path d="M 23.953125,70.0 C 20.109371185302734,70.0 16.265625,70.0 12.421875,70.0" fill="none" stroke="#000000" stroke-width="0.7" /><path d="M 12.421875,70.0 L 11.765625,68.78125" fill="none" stroke="#000000" stroke-width="0.7" /><path d="M 11.765625,68.78125 L 13.484375,66.0" fill="none" stroke="#000000" stroke-width="0.7" /><path d="M 13.484375,66.0 C 14.136191368103027,66.0 20.861797332763672,66.4798812866211 21.171875,66.0" fill="none" stroke="#000000" stroke-width="0.7" /><path d="M 21.171875,66.0 C 21.911678314208984,64.85506439208984 21.51338768005371,63.294700622558594 21.640625,61.9375" fill="none" stroke="#000000" stroke-width="0.7" /><path d="M 21.640625,61.9375 C 22.137493133544922,56.637577056884766 22.11729621887207,51.284095764160156 22.234375,45.96875" fill="none" stroke="#000000" stroke-width="0.7" /><path d="M 22.234375,45.96875 L 22.234375,22.90625" fill="none" stroke="#000000" stroke-width="0.7" /><path d="M 22.234375,22.90625 C 22.234375,17.254186630249023 22.099048614501953,11.644241333007812 21.828125,6.0" fill="none" stroke="#000000" stroke-width="0.7" /><path d="M 21.828125,6.0 L 13.953125,6.0" fill="none" stroke="#000000" stroke-width="0.7" /><path d="M 13.953125,6.0 L 13.484375,4.1875" fill="none" stroke="#000000" stroke-width="0.7" /><path d="M 13.484375,4.1875 L 15.703125,2.0" fill="none" stroke="#000000" stroke-width="0.7" /><path d="M 33.640625,35.28125 L 33.265625,35.96875" fill="none" stroke="#000000" stroke-width="0.7" /><path d="M 33.265625,35.96875 L 33.828125,37.75" fill="none" stroke="#000000" stroke-width="0.7" /><path d="M 33.828125,37.75 C 37.47346878051758,38.35165786743164 41.054344177246094,38.986328125 44.296875,40.90625" fill="none" stroke="#000000" stroke-width="0.7" /><path d="M 44.296875,40.90625 C 54.32413101196289,46.843441009521484 54.03512954711914,63.59250259399414 41.265625,65.34375" fill="none" stroke="#000000" stroke-width="0.7" /><path d="M 41.265625,65.34375 C 38.8389892578125,65.67654418945312 35.90768051147461,65.5242691040039 33.546875,65.21875" fill="none" stroke="#000000" stroke-width="0.7" /><path d="M 33.546875,65.21875 C 32.38594436645508,65.06851196289062 30.7760009765625,65.4622573852539 30.109375,64.5" fill="none" stroke="#000000" stroke-width="0.7" /><path d="M 30.109375,64.5 C 29.260587692260742,63.2747917175293 29.992042541503906,61.521236419677734 29.953125,60.03125" fill="none" stroke="#000000" stroke-width="0.7" /><path d="M 29.953125,60.03125 C 29.80902862548828,54.514442443847656 29.937246322631836,48.984580993652344 30.015625,43.46875" fill="none" stroke="#000000" stroke-width="0.7" /><path d="M 30.015625,43.46875 C 30.148054122924805,34.14900207519531 30.2195987701416,24.813594818115234 30.609375,15.5" fill="none" stroke="#000000" stroke-width="0.7" /><path d="M 30.609375,15.5 C 30.688791275024414,13.602368354797363 30.83610725402832,11.708184242248535 30.953125,9.8125" fill="none" stroke="#000000" stroke-width="0.7" /><path d="M 30.953125,9.8125 C 30.954509735107422,9.790053367614746 31.191631317138672,6.017885208129883 31.234375,6.0" fill="none" stroke="#000000" stroke-width="0.7" /><path d="M 31.234375,6.0 C 32.541385650634766,5.453095436096191 34.06764221191406,6.046816825866699 35.484375,6.0625" fill="none" stroke="#000000" stroke-width="0.7" /><path d="M 35.484375,6.0625 C 42.047462463378906,6.1351542472839355 50.66176223754883,6.527353286743164 50.265625,15.46875" fill="none" stroke="#000000" stroke-width="0.7" /><path d="M 50.265625,15.46875 C 50.18070983886719,17.3853759765625 49.7630729675293,19.313940048217773 49.046875,21.09375" fill="none" stroke="#000000" stroke-width="0.7" /><path d="M 49.046875,21.09375 C 46.33375930786133,27.836048126220703 39.72180938720703,31.994121551513672 33.640625,35.28125" fill="none" stroke="#000000" stroke-width="0.7" /></svg>