<?xml version="1.0" encoding="utf-8" ?>
<svg baseProfile="full" height="72.0" version="1.1" viewBox="0 0 72.0 72.0" width="72.0" xmlns="http://www.w3.org/2000/svg" xmlns:ev="http://www.w3.org/2001/xml-events" xmlns:xlink="http://www.w3.org/1999/xlink"><defs /><path d="M 16.1693115234375,2.003229856491089 C 18.964685440063477,2.0117857456207275 19.65944480895996,1.986371397972107 22.456436157226562,1.9817343950271606" fill="none" stroke="#000000" stroke-width="0.7" /><path d="M 23.364622116088867,2.003229856491089 C 26.159996032714844,2.0117857456207275 26.854755401611328,1.986371397972107 29.651748657226562,1.9817343950271606" fill="none" stroke="#000000" stroke-width="0.7" /><path d="M 30.5599365234375,2.003229856491089 C 33.355308532714844,2.0117857456207275 34.050071716308594,1.986371397972107 36.84706115722656,1.9817343950271606" fill="none" stroke="#000000" stroke-width="0.7" /><path d="M 37.7552490234375,2.003229856491089 C 40.550621032714844,2.0117857456207275 41.245384216308594,1.986371397972107 44.04237365722656,1.9817343950271606" fill="none" stroke="#000000" stroke-width="0.7" /><path d="M 44.943580627441406,2.0036461353302 C 47.73895263671875,2.012202024459839 48.4337158203125,1.9867876768112183 51.23070526123047,1.982150673866272" fill="none" stroke="#000000" stroke-width="0.7" /><path d="M 54.00368118286133,3.2030670642852783 C 55.13158416748047,3.5466113090515137 55.24496078491211,3.375608205795288 55.552215576171875,4.413149833679199" fill="none" stroke="#000000" stroke-width="0.7" /><path d="M 59.10326385498047,12.243534088134766 C 59.00763702392578,9.827909469604492 58.52910614013672,8.55644416809082 57.672996520996094,6.967865943908691" fill="none" stroke="#000000" stroke-width="0.7" /><path d="M 57.685150146484375,18.618186950683594 C 58.99675750732422,16.005990982055664 59.07638931274414,14.735906600952148 59.272544860839844,13.439065933227539" fill="none" stroke="#000000" stroke-width="0.7" /><path d="M 54.050174713134766,24.329238891601562 C 56.052635192871094,21.974721908569336 56.436424255371094,20.980037689208984 57.2628288269043,19.552837371826172" fill="none" stroke="#000000" stroke-width="0.7" /><path d="M 49.20127487182617,28.946807861328125 C 51.402191162109375,27.160253524780273 51.98945617675781,26.584468841552734 53.434322357177734,24.939910888671875" fill="none" stroke="#000000" stroke-width="0.7" /><path d="M 45.073577880859375,30.630802154541016 C 46.89201736450195,30.12861442565918 47.58262634277344,29.93182373046875 48.76056671142578,29.4249210357666" fill="none" stroke="#000000" stroke-width="0.7" /><path d="M 42.29289627075195,33.20341110229492 C 43.26504898071289,31.94779396057129 43.97285079956055,31.425630569458008 44.782840728759766,31.023595809936523" fill="none" stroke="#000000" stroke-width="0.7" /><path d="M 42.219810485839844,34.034908294677734 C 44.34663009643555,34.51587677001953 45.12031936645508,34.4276237487793 46.94464111328125,34.191410064697266" fill="none" stroke="#000000" stroke-width="0.7" /><path d="M 47.28127670288086,35.07978057861328 C 50.35166931152344,35.64412307739258 50.73945236206055,35.81180953979492 52.88059616088867,36.50244903564453" fill="none" stroke="#000000" stroke-width="0.7" /><path d="M 54.02024841308594,37.94730758666992 C 55.98936462402344,39.390933990478516 56.243038177490234,39.62213134765625 57.25130844116211,40.71688461303711" fill="none" stroke="#000000" stroke-width="0.7" /><path d="M 60.33926010131836,47.95188903808594 C 59.89337158203125,45.596038818359375 59.386844635009766,44.449092864990234 58.353878021240234,42.6180534362793" fill="none" stroke="#000000" stroke-width="0.7" /><path d="M 59.243804931640625,54.714378356933594 C 60.55541229248047,52.1021842956543 60.63504409790039,50.83209991455078 60.831199645996094,49.53525924682617" fill="none" stroke="#000000" stroke-width="0.7" /><path d="M 55.604854583740234,60.59352493286133 C 57.60731506347656,58.23900604248047 57.99110412597656,57.24432373046875 58.817508697509766,55.81712341308594" fill="none" stroke="#000000" stroke-width="0.7" /><path d="M 49.82032012939453,64.82637023925781 C 51.68939971923828,63.848121643066406 52.500648498535156,63.50660705566406 54.49854278564453,61.80267333984375" fill="none" stroke="#000000" stroke-width="0.7" /><path d="M 43.13380813598633,68.3322982788086 C 45.22630310058594,67.48011779785156 45.94934844970703,67.11003112792969 48.38449478149414,65.75196075439453" fill="none" stroke="#000000" stroke-width="0.7" /><path d="M 36.09953308105469,69.77312469482422 C 38.10027313232422,69.79129791259766 39.08555221557617,69.75215911865234 41.89106369018555,69.08073425292969" fill="none" stroke="#000000" stroke-width="0.7" /><path d="M 30.92116928100586,70.02766418457031 C 33.038970947265625,69.99740600585938 33.78611755371094,69.95167541503906 35.230953216552734,69.97614288330078" fill="none" stroke="#000000" stroke-width="0.7" /><path d="M 25.73366928100586,70.02766418457031 C 27.851472854614258,69.99740600585938 28.59861946105957,69.95167541503906 30.043455123901367,69.97614288330078" fill="none" stroke="#000000" stroke-width="0.7" /><path d="M 24.67906379699707,70.18814849853516 C 24.92222785949707,70.02165222167969 24.939823150634766,69.503662109375 24.73225975036621,69.64596557617188" fill="none" stroke="#000000" stroke-width="0.7" /><path d="M 18.47309112548828,69.98128509521484 C 21.11764144897461,70.0441665649414 21.723068237304688,70.0059814453125 23.66228675842285,69.9953842163086" fill="none" stroke="#000000" stroke-width="0.7" /><path d="M 12.707464218139648,69.98128509521484 C 15.352015495300293,70.0441665649414 15.957442283630371,70.0059814453125 17.89665985107422,69.9953842163086" fill="none" stroke="#000000" stroke-width="0.7" /><path d="M 11.476723670959473,68.39997100830078 C 12.260737419128418,69.54344940185547 12.451390266418457,69.59828186035156 12.763507843017578,70.27272033691406" fill="none" stroke="#000000" stroke-width="0.7" /><path d="M 11.910076141357422,68.66141510009766 C 12.920671463012695,67.210693359375 13.315418243408203,66.3872299194336 13.427310943603516,66.19586181640625" fill="none" stroke="#000000" stroke-width="0.7" /><path d="M 14.071000099182129,66.09095001220703 C 15.78889274597168,66.22544860839844 16.31889533996582,66.0892562866211 16.823692321777344,66.13632202148438" fill="none" stroke="#000000" stroke-width="0.7" /><path d="M 17.914749145507812,66.09095001220703 C 19.632640838623047,66.22544860839844 20.162643432617188,66.0892562866211 20.66744041442871,66.13632202148438" fill="none" stroke="#000000" stroke-width="0.7" /><path d="M 21.556488037109375,66.12161254882812 C 21.89227867126465,64.02771759033203 21.763530731201172,62.7967529296875 21.431049346923828,61.808837890625" fill="none" stroke="#000000" stroke-width="0.7" /><path d="M 21.67336654663086,61.8001708984375 C 21.885953903198242,59.42338180541992 21.961530685424805,58.22195816040039 21.940153121948242,56.775211334228516" fill="none" stroke="#000000" stroke-width="0.7" /><path d="M 21.688413619995117,55.7626953125 C 22.003931045532227,54.214454650878906 22.213577270507812,53.563026428222656 22.470874786376953,52.15876007080078" fill="none" stroke="#000000" stroke-width="0.7" /><path d="M 21.810914993286133,50.435508728027344 C 22.126432418823242,48.88726806640625 22.336078643798828,48.23583984375 22.59337615966797,46.831573486328125" fill="none" stroke="#000000" stroke-width="0.7" /><path d="M 22.209672927856445,45.581703186035156 C 22.16805648803711,43.20977020263672 22.204158782958984,42.356143951416016 22.247957229614258,40.56587219238281" fill="none" stroke="#000000" stroke-width="0.7" /><path d="M 22.209672927856445,39.816078186035156 C 22.16805648803711,37.44414520263672 22.204158782958984,36.590518951416016 22.247957229614258,34.80024719238281" fill="none" stroke="#000000" stroke-width="0.7" /><path d="M 22.209672927856445,34.050453186035156 C 22.16805648803711,31.67852020263672 22.204158782958984,30.82489585876465 22.247957229614258,29.034622192382812" fill="none" stroke="#000000" stroke-width="0.7" /><path d="M 22.209672927856445,28.284828186035156 C 22.16805648803711,25.91289520263672 22.204158782958984,25.05927085876465 22.247957229614258,23.268997192382812" fill="none" stroke="#000000" stroke-width="0.7" /><path d="M 22.285512924194336,22.377925872802734 C 22.172060012817383,20.256675720214844 22.196645736694336,19.37679100036621 22.16748809814453,17.78290367126465" fill="none" stroke="#000000" stroke-width="0.7" /><path d="M 22.14397621154785,17.067625045776367 C 22.134626388549805,14.734966278076172 22.1373233795166,13.695072174072266 22.080821990966797,11.81573486328125" fill="none" stroke="#000000" stroke-width="0.7" /><path d="M 21.963411331176758,11.434926986694336 C 21.95406150817871,9.10226821899414 21.956758499145508,8.062374114990234 21.900257110595703,6.183036804199219" fill="none" stroke="#000000" stroke-width="0.7" /><path d="M 17.898468017578125,5.869649410247803 C 20.075639724731445,6.021359443664551 20.67569351196289,5.938263893127441 21.824031829833984,6.114266872406006" fill="none" stroke="#000000" stroke-width="0.7" /><path d="M 13.960968971252441,5.869649410247803 C 16.138139724731445,6.021359443664551 16.73819351196289,5.938263893127441 17.886531829833984,6.114266872406006" fill="none" stroke="#000000" stroke-width="0.7" /><path d="M 13.101723670959473,4.103096961975098 C 13.885737419128418,5.246576309204102 14.076390266418457,5.301409721374512 14.388507843017578,5.975846767425537" fill="none" stroke="#000000" stroke-width="0.7" /><path d="M 13.878826141357422,4.36453914642334 C 14.889421463012695,2.913818597793579 15.284168243408203,2.0903525352478027 15.396060943603516,1.8989864587783813" fill="none" stroke="#000000" stroke-width="0.7" /><path d="M 33.6005859375,36.44329071044922 C 33.59601974487305,36.9076042175293 33.63628005981445,36.74266052246094 33.5313835144043,37.141326904296875" fill="none" stroke="#000000" stroke-width="0.7" /><path d="M 34.23976135253906,37.725101470947266 C 37.02411651611328,38.34047317504883 37.42451477050781,38.404579162597656 38.806861877441406,38.80508804321289" fill="none" stroke="#000000" stroke-width="0.7" /><path d="M 39.276031494140625,38.61690139770508 C 42.15576934814453,39.738319396972656 42.51544952392578,40.008880615234375 44.298362731933594,41.00750732421875" fill="none" stroke="#000000" stroke-width="0.7" /><path d="M 48.32257080078125,45.053367614746094 C 47.50967025756836,43.423683166503906 46.8637809753418,42.505340576171875 45.25141906738281,41.29756546020508" fill="none" stroke="#000000" stroke-width="0.7" /><path d="M 51.22806167602539,51.2022705078125 C 50.78217315673828,48.84642028808594 50.2756462097168,47.6994743347168 49.242679595947266,45.86843490600586" fill="none" stroke="#000000" stroke-width="0.7" /><path d="M 50.9014778137207,57.42475891113281 C 51.44071578979492,54.726261138916016 51.429988861083984,53.2928581237793 51.26642990112305,51.82086944580078" fill="none" stroke="#000000" stroke-width="0.7" /><path d="M 47.75428009033203,62.54875564575195 C 49.72809982299805,60.32225799560547 50.02219009399414,59.32393264770508 50.6549072265625,57.989341735839844" fill="none" stroke="#000000" stroke-width="0.7" /><path d="M 41.82315444946289,65.48786163330078 C 43.67714309692383,64.72882843017578 44.51997375488281,64.46007537841797 46.92136001586914,62.792701721191406" fill="none" stroke="#000000" stroke-width="0.7" /><path d="M 37.92426681518555,65.43315124511719 C 39.64215850830078,65.5676498413086 40.17216110229492,65.43145751953125 40.67695999145508,65.47852325439453" fill="none" stroke="#000000" stroke-width="0.7" /><path d="M 34.06489181518555,65.37065124511719 C 35.78278350830078,65.5051498413086 36.31278610229492,65.36895751953125 36.81758499145508,65.41602325439453" fill="none" stroke="#000000" stroke-width="0.7" /><path d="M 30.193464279174805,64.42975616455078 C 32.34504318237305,65.35051727294922 32.80183029174805,65.29006958007812 33.44567108154297,65.42509460449219" fill="none" stroke="#000000" stroke-width="0.7" /><path d="M 29.803529739379883,64.36090087890625 C 29.56465721130371,62.38109588623047 29.75229835510254,61.53199768066406 29.982866287231445,60.09073257446289" fill="none" stroke="#000000" stroke-width="0.7" /><path d="M 29.99419403076172,59.56327438354492 C 29.880741119384766,57.44202423095703 29.90532684326172,56.562137603759766 29.876169204711914,54.96825408935547" fill="none" stroke="#000000" stroke-width="0.7" /><path d="M 29.45001220703125,54.180030822753906 C 29.94709014892578,52.03743362426758 30.05052947998047,51.22469711303711 30.35032844543457,49.32633590698242" fill="none" stroke="#000000" stroke-width="0.7" /><path d="M 29.670127868652344,48.495872497558594 C 30.07086181640625,46.56920623779297 30.120872497558594,45.709903717041016 30.255558013916016,43.98622131347656" fill="none" stroke="#000000" stroke-width="0.7" /><path d="M 30.048723220825195,43.26612854003906 C 30.055479049682617,40.377986907958984 30.06570816040039,39.35820007324219 30.06977653503418,36.681068420410156" fill="none" stroke="#000000" stroke-width="0.7" /><path d="M 30.148908615112305,36.272789001464844 C 30.155664443969727,33.384647369384766 30.1658935546875,32.36486053466797 30.16996192932129,29.68773078918457" fill="none" stroke="#000000" stroke-width="0.7" /><path d="M 30.279573440551758,29.27884292602539 C 30.28632926940918,26.390701293945312 30.296558380126953,25.37091827392578 30.300626754760742,22.69378662109375" fill="none" stroke="#000000" stroke-width="0.7" /><path d="M 30.33808708190918,22.209421157836914 C 30.45054817199707,19.255268096923828 30.530729293823242,18.065155029296875 30.63982582092285,15.7723388671875" fill="none" stroke="#000000" stroke-width="0.7" /><path d="M 30.744176864624023,15.45009994506836 C 30.78518295288086,12.892949104309082 30.781152725219727,11.880499839782715 30.80927085876465,9.84644603729248" fill="none" stroke="#000000" stroke-width="0.7" /><path d="M 31.12677574157715,9.737768173217773 C 31.111845016479492,7.975798606872559 31.18596839904785,7.022614479064941 31.06842041015625,6.058784484863281" fill="none" stroke="#000000" stroke-width="0.7" /><path d="M 31.59617805480957,5.687408924102783 C 33.271461486816406,5.794858932495117 34.01945495605469,5.663089275360107 35.248374938964844,6.058687210083008" fill="none" stroke="#000000" stroke-width="0.7" /><path d="M 36.24102783203125,6.126643657684326 C 38.733543395996094,6.111914157867432 39.468833923339844,6.117910385131836 41.65141296386719,6.342507839202881" fill="none" stroke="#000000" stroke-width="0.7" /><path d="M 43.05543899536133,6.719036102294922 C 45.69292449951172,7.414478302001953 46.07672882080078,7.546534061431885 47.556766510009766,8.477947235107422" fill="none" stroke="#000000" stroke-width="0.7" /><path d="M 50.14936065673828,14.666799545288086 C 50.29142379760742,12.374593734741211 49.7161979675293,11.017553329467773 48.712921142578125,9.797313690185547" fill="none" stroke="#000000" stroke-width="0.7" /><path d="M 49.05892562866211,21.104232788085938 C 50.046714782714844,18.218408584594727 50.20209884643555,16.749704360961914 50.38761520385742,15.408233642578125" fill="none" stroke="#000000" stroke-width="0.7" /><path d="M 45.570133209228516,26.485137939453125 C 47.572593688964844,24.1306209564209 47.956382751464844,23.135936737060547 48.78278732299805,21.708736419677734" fill="none" stroke="#000000" stroke-width="0.7" /><path d="M 40.40095901489258,31.219017028808594 C 42.456504821777344,29.742258071899414 43.2053108215332,29.338321685791016 44.66233444213867,27.630313873291016" fill="none" stroke="#000000" stroke-width="0.7" /><path d="M 34.38151168823242,34.97330856323242 C 36.470176696777344,33.85787582397461 37.19673538208008,33.52187728881836 39.11056900024414,32.04413986206055" fill="none" stroke="#000000" stroke-width="0.7" /></svg>